<?xml version="1.0" encoding="UTF-8" standalone="no"?>
<!-- Uploaded to: SVG Repo, www.svgrepo.com, Transformed by: SVG Repo Mixer Tools -->

<svg
   fill="#818181"
   height="800px"
   width="800px"
   version="1.1"
   id="Capa_1"
   viewBox="0 0 60 60"
   xml:space="preserve"
   stroke="#818181"
   sodipodi:docname="logo 1.svg"
   inkscape:version="1.3 (0e150ed6c4, 2023-07-21)"
   xmlns:inkscape="http://www.inkscape.org/namespaces/inkscape"
   xmlns:sodipodi="http://sodipodi.sourceforge.net/DTD/sodipodi-0.dtd"
   xmlns:xlink="http://www.w3.org/1999/xlink"
   xmlns="http://www.w3.org/2000/svg"
   xmlns:svg="http://www.w3.org/2000/svg"><defs
   id="defs1"><linearGradient
     id="swatch7"
     inkscape:swatch="solid"><stop
       style="stop-color:#000000;stop-opacity:1;"
       offset="0"
       id="stop7" /></linearGradient><linearGradient
     id="swatch6"
     inkscape:swatch="solid"><stop
       style="stop-color:#ffffff;stop-opacity:1;"
       offset="0"
       id="stop6" /></linearGradient><linearGradient
     id="linearGradient1"
     inkscape:swatch="gradient"><stop
       style="stop-color:#ffffff;stop-opacity:1;"
       offset="0"
       id="stop1" /><stop
       style="stop-color:#ffffff;stop-opacity:0;"
       offset="1"
       id="stop2" /></linearGradient><linearGradient
     inkscape:collect="always"
     xlink:href="#swatch7"
     id="linearGradient11"
     gradientUnits="userSpaceOnUse"
     gradientTransform="translate(-1.6496704,-0.79898677)"
     x1="8.5263791"
     y1="28.99386"
     x2="45.713199"
     y2="28.99386" /></defs><sodipodi:namedview
   id="namedview1"
   pagecolor="#ffffff"
   bordercolor="#000000"
   borderopacity="0.25"
   inkscape:showpageshadow="2"
   inkscape:pageopacity="0.0"
   inkscape:pagecheckerboard="0"
   inkscape:deskcolor="#d1d1d1"
   inkscape:zoom="1.01625"
   inkscape:cx="400"
   inkscape:cy="400"
   inkscape:window-width="1920"
   inkscape:window-height="1009"
   inkscape:window-x="-8"
   inkscape:window-y="-8"
   inkscape:window-maximized="1"
   inkscape:current-layer="Capa_1" />&#10;&#10;<g
   id="SVGRepo_bgCarrier"
   stroke-width="0" />&#10;&#10;<g
   id="SVGRepo_tracerCarrier"
   stroke-linecap="round"
   stroke-linejoin="round" />&#10;&#10;<g
   id="SVGRepo_iconCarrier"
   transform="matrix(0.97131013,0,0,0.97108589,0.86069626,0.86742446)"> <path
   d="M 30,0 C 13.458,0 0,13.458 0,30 0,46.542 13.458,60 30,60 46.542,60 60,46.542 60,30 60,13.458 46.542,0 30,0 Z m 20.236,42.907 c -0.208,0.325 -0.424,0.644 -0.648,0.959 -0.032,0.045 -0.063,0.091 -0.096,0.136 -0.214,0.298 -0.437,0.589 -0.664,0.877 -0.045,0.057 -0.088,0.115 -0.134,0.171 -0.221,0.274 -0.45,0.541 -0.683,0.805 -0.054,0.062 -0.106,0.125 -0.161,0.187 -0.285,0.317 -0.578,0.628 -0.88,0.929 -0.303,0.302 -0.614,0.596 -0.932,0.882 -0.056,0.05 -0.114,0.097 -0.17,0.147 -0.27,0.238 -0.544,0.473 -0.824,0.699 -0.051,0.041 -0.103,0.08 -0.154,0.12 -0.293,0.232 -0.591,0.459 -0.895,0.678 -0.04,0.029 -0.081,0.057 -0.122,0.086 -0.318,0.226 -0.641,0.445 -0.97,0.655 -0.016,0.01 -0.032,0.02 -0.048,0.03 L 34.829,36.369 c 0.02,-0.015 0.037,-0.035 0.058,-0.05 0.535,-0.415 1.015,-0.895 1.43,-1.43 0.016,-0.02 0.035,-0.037 0.05,-0.058 l 13.899,8.026 c -0.009,0.016 -0.019,0.033 -0.03,0.05 z M 9.769,17.086 c 0.204,-0.318 0.416,-0.63 0.634,-0.938 0.037,-0.052 0.073,-0.105 0.111,-0.157 0.208,-0.289 0.424,-0.571 0.645,-0.851 0.051,-0.065 0.101,-0.131 0.153,-0.196 0.213,-0.264 0.434,-0.522 0.659,-0.777 0.062,-0.07 0.121,-0.143 0.183,-0.213 0.284,-0.316 0.576,-0.625 0.876,-0.925 0.302,-0.302 0.612,-0.594 0.929,-0.88 0.062,-0.056 0.126,-0.108 0.188,-0.163 0.263,-0.232 0.53,-0.461 0.803,-0.681 0.057,-0.046 0.116,-0.09 0.174,-0.136 0.287,-0.227 0.579,-0.45 0.876,-0.664 0.043,-0.031 0.087,-0.061 0.131,-0.092 0.319,-0.226 0.642,-0.445 0.972,-0.656 0.014,-0.009 0.027,-0.017 0.041,-0.026 l 8.025,13.899 c -0.02,0.015 -0.037,0.035 -0.058,0.05 -0.535,0.415 -1.015,0.895 -1.43,1.43 -0.016,0.02 -0.035,0.037 -0.05,0.058 L 9.733,17.144 c 0.012,-0.019 0.024,-0.038 0.036,-0.058 z m 26.549,8.025 c -0.415,-0.535 -0.895,-1.015 -1.43,-1.43 -0.02,-0.016 -0.037,-0.035 -0.058,-0.05 L 42.847,9.746 c 2.977,1.895 5.511,4.429 7.406,7.406 l -13.885,8.017 c -0.015,-0.02 -0.034,-0.037 -0.05,-0.058 z M 25.169,36.369 17.151,50.255 C 14.174,48.36 11.64,45.826 9.745,42.849 l 13.886,-8.018 c 0.015,0.02 0.035,0.037 0.05,0.058 0.415,0.535 0.895,1.015 1.43,1.43 0.021,0.015 0.038,0.034 0.058,0.05 z M 35,30 c 0,2.758 -2.242,5 -5,5 -2.758,0 -5,-2.242 -5,-5 0,-2.758 2.242,-5 5,-5 2.758,0 5,2.242 5,5 z M 33.102,22.627 C 32.442,22.348 31.735,22.162 31,22.07 V 6.025 c 3.578,0.146 7.018,1.076 10.123,2.709 z M 29,22.069 c -0.736,0.092 -1.443,0.278 -2.102,0.557 L 18.873,8.726 C 21.977,7.098 25.418,6.171 29,6.025 Z m -6.373,4.829 C 22.348,27.558 22.162,28.265 22.07,29 H 6.024 C 6.17,25.418 7.098,21.977 8.727,18.873 Z M 22.069,31 c 0.092,0.735 0.278,1.442 0.557,2.102 L 8.733,41.124 C 7.101,38.018 6.171,34.578 6.024,31 Z m 4.829,6.374 c 0.66,0.279 1.367,0.465 2.102,0.557 V 53.976 C 25.422,53.83 21.982,52.9 18.876,51.267 Z M 31,37.931 c 0.736,-0.092 1.443,-0.278 2.102,-0.557 l 8.025,13.9 C 38.023,52.902 34.582,53.83 31,53.976 Z m 6.373,-4.829 C 37.652,32.442 37.838,31.735 37.93,31 h 16.045 c -0.146,3.582 -1.073,7.023 -2.702,10.128 z M 37.931,29 c -0.092,-0.736 -0.278,-1.442 -0.557,-2.102 l 13.893,-8.021 c 1.632,3.105 2.562,6.545 2.709,10.123 z"
   id="path1" /> </g>&#10;&#10;<text
   xml:space="preserve"
   style="font-size:46.9368px;font-family:'MS Gothic';-inkscape-font-specification:'MS Gothic';fill:url(#linearGradient11);fill-opacity:1;fill-rule:nonzero;stroke-width:0;stroke-dasharray:none"
   x="6.0353503"
   y="46.437885"
   id="text1"
   transform="scale(0.98420643,1.016047)"><tspan
     sodipodi:role="line"
     id="tspan1"
     style="fill:url(#linearGradient11);fill-opacity:1;fill-rule:nonzero;stroke-width:0;stroke-dasharray:none"
     x="6.0353503"
     y="46.437885">-1</tspan></text></svg>
